# xmcd
#
# Track frame offsets:
#	182
#	24080
#	44502
#	65005
#	82052
#
# Disc length: 1406 seconds
#
# Revision: 0
# Processed by: cddbd v1.4PL0 Copyright (c) Steve Scherf et al.
# Submitted via: dBpowerAMP V4.0
#
DISCID=3b057c05
DTITLE=Raj - Mrugam
DYEAR=1900
DGENRE=Blues
TTITLE0=Chal Chal Chali
TTITLE1=Eeduki Jathosthe
TTITLE2=Thiyyaga Raagale Thiyyaga
TTITLE3=Mabbullo Nelavanka
TTITLE4=Dole Dole
EXTD=
EXTT0=
EXTT1=
EXTT2=
EXTT3=
EXTT4=
PLAYORDER=
